<svg width="251" height="251" viewBox="0 0 251 251" fill="none" xmlns="http://www.w3.org/2000/svg">
<path d="M205.364 166.953C204.661 160.155 203.299 153.443 201.295 146.91C199.119 141.431 196.473 136.15 193.385 131.128C188.313 122.825 182.104 115.273 174.94 108.691V49.44H197.758C199.775 49.44 201.71 48.6384 203.137 47.2128C204.563 45.7862 205.364 43.8515 205.364 41.834V22.8187C205.364 17.7759 203.361 12.9389 199.795 9.37326C196.229 5.80676 191.392 3.8042 186.35 3.8042H64.6522C59.6094 3.8042 54.7724 5.8068 51.2067 9.37326C47.6402 12.9389 45.6377 17.7759 45.6377 22.8187V182.547C45.6377 184.564 46.4384 186.499 47.8649 187.925C49.2915 189.351 51.2262 190.153 53.2436 190.153H121.089C119.952 208.31 121.438 226.537 125.5 244.27C125.701 245.122 126.189 245.878 126.881 246.411C127.574 246.944 128.429 247.222 129.304 247.199H186.35C187.296 247.204 188.209 246.855 188.913 246.223C189.615 245.59 190.057 244.717 190.152 243.776C190.981 236.254 192.25 228.787 193.956 221.414C195.935 213.087 198.476 204.905 201.562 196.923C205.099 187.355 206.399 177.103 205.364 166.955L205.364 166.953ZM197.758 22.8179V41.8332H174.94V22.8179C174.94 18.7425 177.115 14.9758 180.645 12.9373C184.174 10.8995 188.524 10.8995 192.054 12.9373C195.584 14.9758 197.758 18.7425 197.758 22.8179ZM126.451 122.078C123.421 124.947 121.702 128.934 121.697 133.107V182.545H53.2428V22.8172C53.2428 19.7916 54.4446 16.8895 56.5838 14.7497C58.7235 12.6105 61.6257 11.4087 64.6513 11.4087H171.136C168.647 14.6892 167.311 18.6992 167.333 22.8172V178.094C167.383 180.12 166.674 182.09 165.343 183.618C164.013 185.145 162.158 186.119 160.145 186.347C158.048 186.462 155.997 185.705 154.478 184.256C152.97 182.818 152.118 180.825 152.121 178.741V133.752C152.2 129.767 150.75 125.904 148.07 122.954C145.389 120.005 141.681 118.194 137.707 117.894C133.543 117.707 129.482 119.216 126.45 122.077L126.451 122.078ZM194.221 194.335C191.097 202.667 188.556 211.207 186.615 219.891C185.037 226.385 183.818 232.962 182.964 239.59H132.345C130.996 233.182 129.98 226.708 129.304 220.194C128.049 207.803 128.049 195.316 129.304 182.925C129.321 182.798 129.321 182.67 129.304 182.544V133.106C129.301 131.022 130.153 129.029 131.661 127.591C133.181 126.142 135.231 125.385 137.328 125.5C139.34 125.728 141.195 126.701 142.526 128.229C143.856 129.757 144.566 131.728 144.516 133.752V178.742C144.51 182.919 146.222 186.914 149.25 189.791C152.278 192.668 156.355 194.173 160.526 193.954C164.5 193.653 168.209 191.842 170.89 188.893C173.569 185.943 175.019 182.079 174.94 178.095V119.338C183.086 128.101 189.534 138.301 193.955 149.42C195.838 155.412 197.112 161.579 197.758 167.827C198.608 176.767 197.399 185.782 194.221 194.182L194.221 194.335Z" fill="black"/>
<path d="M110.287 91.2719C119.365 91.2719 128.071 87.6663 134.49 81.2473C140.909 74.8278 144.515 66.1221 144.515 57.0447C144.515 47.9673 140.909 39.2613 134.49 32.842C128.071 26.4227 119.365 22.8167 110.287 22.8167C101.21 22.8167 92.504 26.4231 86.0846 32.842C79.6657 39.2609 76.0601 47.9666 76.0601 57.0447C76.0601 66.1221 79.6657 74.828 86.0846 81.2473C92.5042 87.6663 101.21 91.2719 110.287 91.2719ZM98.8779 81.0415V79.8625C98.8779 75.7871 101.053 72.0205 104.583 69.9827C108.112 67.9442 112.461 67.9442 115.992 69.9827C119.522 72.0205 121.696 75.7871 121.696 79.8625V81.0415C114.492 84.5386 106.082 84.5386 98.8779 81.0415ZM104.583 55.1425C104.583 53.6293 105.184 52.1782 106.253 51.1087C107.323 50.0392 108.774 49.4379 110.287 49.4379C111.8 49.4379 113.251 50.0392 114.321 51.1087C115.39 52.1783 115.992 53.6294 115.992 55.1425C115.992 56.6556 115.39 58.106 114.321 59.1763C113.251 60.2458 111.8 60.8472 110.287 60.8472C108.774 60.8472 107.323 60.2458 106.253 59.1763C105.184 58.106 104.583 56.6556 104.583 55.1425ZM110.287 30.4232C117.379 30.4224 124.179 33.2518 129.177 38.2833C134.175 43.3148 136.959 50.1321 136.912 57.2244C136.864 64.3164 133.988 71.0963 128.922 76.06C127.851 70.9754 124.745 66.5503 120.327 63.8139C122.427 61.4282 123.589 58.3601 123.598 55.181C123.598 50.4258 121.061 46.0316 116.942 43.654C112.824 41.2764 107.75 41.2764 103.631 43.654C99.5134 46.0316 96.9766 50.4258 96.9766 55.181C96.9847 58.3601 98.1474 61.4282 100.247 63.8139C95.8295 66.5503 92.7238 70.9754 91.6527 76.06C86.586 71.0965 83.7108 64.3164 83.6627 57.2244C83.6146 50.1324 86.399 43.3148 91.3971 38.2833C96.3957 33.2518 103.195 30.4224 110.287 30.4232H110.287Z" fill="black"/>
<path d="M68.454 110.287H91.272C92.6307 110.287 93.8866 109.562 94.5655 108.386C95.2445 107.209 95.2445 105.759 94.5655 104.582C93.8865 103.406 92.6307 102.681 91.272 102.681H68.454C67.0952 102.681 65.8394 103.406 65.1604 104.582C64.4807 105.759 64.4807 107.209 65.1604 108.386C65.8394 109.562 67.0952 110.287 68.454 110.287Z" fill="black"/>
<path d="M152.121 106.485C152.121 105.476 151.719 104.509 151.007 103.796C150.294 103.082 149.326 102.682 148.317 102.682H110.287C108.928 102.682 107.672 103.407 106.993 104.583C106.313 105.76 106.313 107.209 106.993 108.387C107.672 109.563 108.928 110.288 110.287 110.288H148.317C149.326 110.288 150.294 109.887 151.007 109.175C151.719 108.461 152.121 107.494 152.121 106.485V106.485Z" fill="black"/>
<path d="M68.454 125.5H76.0599C77.4187 125.5 78.6737 124.775 79.3535 123.599C80.0324 122.422 80.0324 120.972 79.3535 119.795C78.6737 118.619 77.4187 117.894 76.0599 117.894H68.454C67.0952 117.894 65.8394 118.619 65.1604 119.795C64.4807 120.972 64.4807 122.422 65.1604 123.599C65.8394 124.775 67.0952 125.5 68.454 125.5Z" fill="black"/>
<path d="M106.485 117.895H91.2726C89.9139 117.895 88.6589 118.619 87.9791 119.796C87.3001 120.972 87.3001 122.423 87.9791 123.599C88.6589 124.776 89.9139 125.501 91.2726 125.501H106.485C107.843 125.501 109.099 124.776 109.778 123.599C110.458 122.423 110.458 120.972 109.778 119.796C109.099 118.619 107.843 117.895 106.485 117.895Z" fill="black"/>
<path d="M68.454 140.712H87.4693C88.8273 140.712 90.0831 139.988 90.7629 138.811C91.4418 137.635 91.4418 136.184 90.7629 135.008C90.0831 133.831 88.8273 133.106 87.4693 133.106H68.454C67.0952 133.106 65.8394 133.831 65.1604 135.008C64.4807 136.184 64.4807 137.635 65.1604 138.811C65.8394 139.988 67.0952 140.712 68.454 140.712Z" fill="black"/>
<path d="M98.8794 148.318H68.4561C67.0973 148.318 65.8415 149.043 65.1625 150.22C64.4827 151.397 64.4827 152.846 65.1625 154.023C65.8415 155.199 67.0973 155.924 68.4561 155.924H98.8794C100.238 155.924 101.494 155.199 102.173 154.023C102.853 152.846 102.853 151.397 102.173 150.22C101.494 149.043 100.238 148.318 98.8794 148.318Z" fill="black"/>
</svg>
